<svg width="243" height="210" viewBox="0 0 243 210" fill="none" xmlns="http://www.w3.org/2000/svg">
<g id="Group">
<g id="Group_2">
<g id="Group_3">
<g id="Group_4">
<path id="Vector" d="M83.1269 208.559C79.7043 209.73 75.7928 207.409 74.4322 203.384L53.2589 141.262L65.6313 137.024L86.8258 199.231C88.1864 203.213 86.5282 207.388 83.1269 208.559Z" fill="#0D0C22"/>
<path id="Vector_2" d="M81.2787 209.326C80.2795 209.326 79.2591 209.091 78.2812 208.601C76.3042 207.622 74.7311 205.79 73.9658 203.533L52.7925 141.411C52.7074 141.177 52.835 140.9 53.0901 140.815L65.4624 136.577C65.59 136.534 65.7175 136.534 65.8238 136.598C65.9301 136.662 66.0152 136.747 66.0577 136.875L87.2522 199.082C88.6766 203.299 86.8909 207.75 83.2557 209.006C82.6392 209.219 81.9589 209.326 81.2787 209.326ZM53.8554 141.56L74.8799 203.235C75.5602 205.258 76.9632 206.919 78.7064 207.771C80.1094 208.452 81.6188 208.58 82.9793 208.112C86.1256 207.026 87.6562 203.107 86.3807 199.38L65.3349 137.62L53.8554 141.56Z" fill="#0D0C22"/>
</g>
<path id="Vector_3" d="M63.4421 83.3995L23.4108 112.001L7.82774 128.207L1.70506 139.047L1.6838 139.132C0.472024 141.007 1.17358 145.33 3.44833 149.738C5.68055 154.083 8.82693 157.107 11.0379 157.277L10.9741 157.32L22.7305 158.597L44.7339 155.084L91.4406 138.344L149.5 148.311L149.904 148.333C135.32 145.607 115.634 126.078 101.326 98.4561C87.0399 70.8558 82.4904 43.575 88.7619 30.1156H88.7406L63.761 82.718L63.4421 83.3995Z" fill="white"/>
<g id="Group_5">
<path id="Vector_4" d="M159.517 147.139C173.864 139.671 171.094 105.824 153.332 71.5392C135.569 37.2549 109.54 15.516 95.1934 22.9841C80.8471 30.4521 83.6164 64.2992 101.379 98.5836C119.141 132.868 145.171 154.607 159.517 147.139Z" fill="white"/>
<path id="Vector_5" d="M153.243 149.078C146.993 149.078 139.467 145.586 131.368 138.792C120.334 129.549 109.513 115.302 100.903 98.648C87.871 73.4329 82.4924 47.579 87.212 32.7779C88.7851 27.8371 91.4213 24.3871 95.0141 22.5343C102.157 18.8713 112.213 21.9806 123.353 31.3084C134.386 40.5511 145.207 54.7985 153.817 71.4524C166.871 96.6674 172.249 122.521 167.508 137.323C165.935 142.263 163.299 145.713 159.706 147.566C157.772 148.588 155.603 149.078 153.243 149.078ZM101.519 21.9806C99.3298 21.9806 97.2889 22.4278 95.4606 23.3861C92.0803 25.1112 89.6143 28.3908 88.1261 33.0973C83.4703 47.6855 88.8277 73.2626 101.753 98.2647C119.356 132.275 145.165 154.04 159.302 146.778C162.682 145.053 165.149 141.773 166.637 137.067C171.292 122.479 165.935 96.9017 153.009 71.8996C137.682 42.2974 116.167 21.9806 101.519 21.9806Z" fill="#0D0C22"/>
</g>
<path id="Vector_6" d="M153.242 149.078C146.992 149.078 139.466 145.585 131.366 138.791C120.332 129.549 109.511 115.301 100.901 98.6474C87.8695 73.4323 82.4909 47.5783 87.2105 32.7772C88.7837 27.8364 91.4198 24.3864 95.0127 22.5336C99.796 20.0632 106.046 20.6808 113.083 24.3012C119.822 27.7725 127.114 33.9272 134.215 42.0838C134.385 42.2755 134.364 42.5736 134.172 42.744C133.981 42.9144 133.683 42.8931 133.513 42.7014C119.099 26.1327 104.516 18.7215 95.4591 23.3855C92.0789 25.1105 89.6128 28.3901 88.1246 33.0967C83.4689 47.6848 88.8262 73.2619 101.752 98.264C117.059 127.845 138.594 148.183 153.221 148.183C155.41 148.183 157.451 147.736 159.279 146.777C162.66 145.052 165.126 141.773 166.614 137.066C171.27 122.478 165.912 96.901 152.987 71.8989C149.139 64.4452 144.802 57.4386 140.146 51.0709C139.997 50.858 140.04 50.5598 140.252 50.4107C140.465 50.2617 140.763 50.3043 140.911 50.5172C145.61 56.9275 149.947 63.9766 153.837 71.473C166.869 96.6668 172.248 122.521 167.507 137.322C165.934 142.263 163.298 145.713 159.705 147.565C157.77 148.588 155.602 149.078 153.242 149.078Z" fill="#0D0C22"/>
<g id="Group_6">
<path id="Vector_7" d="M126.988 103.494C130.312 101.764 129.674 93.9296 125.563 85.9954C121.452 78.0611 115.426 73.0316 112.102 74.7617C108.778 76.4918 109.417 84.3263 113.527 92.2605C117.638 100.195 123.665 105.224 126.988 103.494Z" fill="white"/>
<path id="Vector_8" d="M125.54 104.313C121.883 104.313 116.781 99.5849 113.104 92.4506C110.043 86.5301 108.788 80.4393 109.915 76.9254C110.319 75.6902 110.978 74.8171 111.892 74.3485C115.506 72.4957 121.692 77.543 125.986 85.8273C129.048 91.7478 130.302 97.8386 129.175 101.353C128.771 102.588 128.112 103.461 127.198 103.929C126.688 104.185 126.135 104.313 125.54 104.313ZM113.55 74.8809C113.104 74.8809 112.679 74.9661 112.317 75.1578C111.616 75.5198 111.106 76.2013 110.787 77.2023C109.745 80.4819 110.957 86.3172 113.912 92.0246C117.823 99.5849 123.712 104.675 126.752 103.099C127.453 102.737 127.963 102.055 128.282 101.054C129.324 97.7534 128.091 91.9395 125.157 86.232C121.713 79.6088 116.781 74.8809 113.55 74.8809Z" fill="white"/>
</g>
<path id="Vector_9" d="M150.011 141.134C144.526 141.134 137.936 138.067 130.835 132.125C121.183 124.033 111.702 111.553 104.176 96.9862C92.7597 74.923 88.0614 52.2848 92.1857 39.3152C93.5676 34.9707 95.8848 31.9466 99.0525 30.3068C106.323 26.5799 117.017 30.8818 128.412 42.105C128.603 42.2967 128.603 42.5736 128.412 42.7652C128.22 42.9569 127.944 42.9569 127.753 42.7652C116.655 31.8401 106.344 27.5808 99.4777 31.1373C96.5439 32.6494 94.3967 35.4818 93.0786 39.592C89.0181 52.3274 93.6951 74.6887 105.005 96.5602C118.377 122.436 137.192 140.197 149.99 140.197C151.903 140.197 153.668 139.792 155.283 138.983C158.217 137.471 160.364 134.638 161.682 130.528C165.743 117.793 161.066 95.4315 149.756 73.56C146.333 66.9581 142.506 60.7608 138.382 55.1598C138.233 54.9468 138.276 54.6487 138.488 54.4996C138.701 54.3505 138.999 54.3931 139.148 54.6061C143.314 60.271 147.162 66.4895 150.606 73.1341C162.023 95.1973 166.721 117.835 162.597 130.805C161.215 135.15 158.897 138.174 155.73 139.813C153.987 140.687 152.073 141.134 150.011 141.134Z" fill="#0D0C22"/>
<path id="Vector_10" d="M22.7536 159.045C22.7323 159.045 22.7111 159.045 22.7111 159.045L10.9547 157.767C10.8909 157.767 10.8271 157.746 10.7633 157.703C8.33977 157.32 5.27843 154.253 3.0462 149.951C0.665163 145.415 -0.0363941 140.985 1.26042 138.898L1.28168 138.835L7.40436 127.973C7.42562 127.931 7.44688 127.909 7.46814 127.888L23.0512 111.681C23.0725 111.66 23.0937 111.639 23.115 111.618L63.04 83.0803L88.296 29.9029C88.3598 29.7964 88.4448 29.7112 88.5724 29.6686C88.6999 29.626 88.8275 29.626 88.9338 29.6899C89.1676 29.7964 89.2739 30.0732 89.1676 30.3075C82.7686 44.0437 87.8283 71.3459 101.732 98.2221C115.657 125.141 135.066 145.074 150.012 147.822C150.246 147.864 150.416 148.077 150.394 148.333C150.373 148.567 150.161 148.737 149.927 148.759L149.523 148.737C149.502 148.737 149.48 148.737 149.459 148.737L91.5061 138.792L44.9058 155.488C44.8845 155.488 44.842 155.51 44.8207 155.51L22.8174 159.024C22.7961 159.045 22.7748 159.045 22.7536 159.045ZM11.2948 156.873L22.7536 158.108L44.6507 154.594L91.3361 137.876C91.4211 137.855 91.4849 137.834 91.5699 137.855L143.74 146.799C129.645 140.602 113.169 122.308 100.945 98.6693C88.8062 75.2006 83.3851 51.3698 86.3614 36.3131L63.8691 83.5914C63.8265 83.6553 63.784 83.7192 63.7202 83.7618L23.7315 112.363L8.21221 128.484L2.08954 139.346C2.08954 139.367 2.06828 139.388 2.06828 139.388C0.962793 141.113 1.70687 145.373 3.85406 149.525C5.95873 153.593 8.99881 156.66 11.0822 156.809C11.1673 156.809 11.231 156.83 11.2948 156.873Z" fill="#0D0C22"/>
<g id="Group_7">
<path id="Vector_11" d="M63.5053 83.2292L88.7401 30.0944H88.7614C82.4899 43.5538 87.0606 70.8346 101.326 98.4349C115.633 126.078 135.319 145.607 149.946 148.29L149.542 148.269L91.5676 138.323L90.2283 138.089C83.4891 136.896 74.4964 128.122 68.0548 115.6C61.4432 102.758 60.2739 89.9589 63.2077 83.8681L63.5053 83.2292Z" fill="white"/>
<path id="Vector_12" d="M149.947 148.759C149.926 148.759 149.947 148.759 149.947 148.759L149.522 148.737C149.501 148.737 149.479 148.737 149.458 148.737L91.484 138.792L90.1447 138.558C83.0228 137.301 73.9876 128.165 67.6311 115.834C60.4242 101.821 60.0628 89.3412 62.784 83.6764L63.1028 83.0375L88.3376 29.924C88.4014 29.8175 88.4865 29.7323 88.614 29.6897C88.7416 29.6471 88.8691 29.6471 88.9754 29.711C89.2093 29.8175 89.3156 30.0943 89.2093 30.3286C82.8102 44.0648 87.8699 71.367 101.774 98.2432C115.698 125.162 135.108 145.096 150.053 147.843C150.287 147.885 150.457 148.098 150.436 148.354C150.372 148.567 150.181 148.759 149.947 148.759ZM86.318 36.3129L63.932 83.4421L63.6131 84.081C60.9131 89.7033 61.6997 102.268 68.4602 115.387C74.6892 127.483 83.4693 136.428 90.3148 137.62L91.6541 137.855L143.718 146.799C129.623 140.602 113.147 122.308 100.923 98.6691C88.7841 75.2004 83.363 51.3695 86.318 36.3129Z" fill="#292E35"/>
</g>
<path id="Vector_13" d="M22.1139 158.981C22.0927 158.981 22.0714 158.981 22.0714 158.981L10.932 157.788C10.8682 157.788 10.8045 157.767 10.7407 157.724C8.31724 157.341 5.25604 154.274 3.02392 149.973C0.664241 145.415 -0.0372841 140.985 1.25947 138.898L1.28073 138.834L7.40314 127.973C7.53069 127.739 7.80704 127.675 8.04089 127.803C8.27473 127.931 8.3385 128.208 8.21095 128.442L2.08855 139.346C2.08855 139.367 2.06729 139.388 2.06729 139.388C0.961858 141.113 1.7059 145.373 3.85299 149.525C5.95757 153.593 8.99751 156.66 11.0808 156.809C11.1446 156.809 11.2296 156.83 11.2722 156.873L22.1564 158.044C22.4115 158.065 22.6029 158.299 22.5603 158.555C22.5391 158.789 22.3478 158.981 22.1139 158.981Z" fill="#0D0C22"/>
<g id="Group_8">
<path id="Vector_14" d="M22.8568 158.512C19.2429 158.257 14.1834 153.124 10.5057 146.033C6.61547 138.515 5.70136 130.742 8.08229 127.973L1.72605 139.047L1.68353 139.133C0.471808 141.007 1.17333 145.33 3.44798 149.738C5.6801 154.083 8.82634 157.107 11.0372 157.277L10.9734 157.32L22.8568 158.512Z" fill="white"/>
<path id="Vector_15" d="M22.858 158.981C22.8367 158.981 22.8367 158.981 22.8154 158.981C22.7304 158.981 22.6241 158.959 22.5391 158.959L10.932 157.788C10.8682 157.788 10.8045 157.767 10.7407 157.724C8.31724 157.341 5.25604 154.274 3.02392 149.972C0.664241 145.415 -0.037284 140.985 1.25947 138.898L1.28073 138.834L6.87168 129.08C7.08426 128.527 7.36062 128.037 7.70075 127.632C7.84956 127.441 8.12592 127.419 8.31724 127.547C8.50857 127.696 8.57234 127.952 8.44479 128.165L7.65824 129.506C6.40399 132.892 7.63698 139.537 10.8682 145.756C14.3759 152.549 19.159 157.511 22.5816 157.958L22.8367 157.98C23.0918 158.001 23.2831 158.235 23.2619 158.491C23.2831 158.789 23.0918 158.981 22.858 158.981ZM11.2722 156.872L19.3928 157.703C16.2679 155.701 12.824 151.57 10.0817 146.245C7.42439 141.113 6.10638 135.789 6.31896 131.955L2.08855 139.345C2.08855 139.367 2.06729 139.388 2.06729 139.388C0.961858 141.113 1.7059 145.372 3.85299 149.525C5.95757 153.593 8.99751 156.659 11.0808 156.808C11.1446 156.808 11.2296 156.83 11.2722 156.872Z" fill="#0D0C22"/>
</g>
<g id="Group_9">
<path id="Vector_16" d="M43.9468 155.169L44.8821 154.977C39.8226 156.042 31.8295 148.375 26.196 137.492C20.435 126.376 19.3509 115.28 23.4325 112.001L22.901 112.533L8.12645 127.909C5.703 130.635 6.59585 138.451 10.5074 146.011C14.2701 153.295 19.606 158.491 23.2411 158.47L43.9468 155.169Z" fill="#0D0C22"/>
<path id="Vector_17" d="M23.22 158.959C19.351 158.959 13.9726 153.741 10.0824 146.245C6.1283 138.578 5.12916 130.571 7.76519 127.611L22.2634 112.533C22.5185 112.192 22.8161 111.894 23.135 111.638C23.3263 111.489 23.6027 111.51 23.7727 111.681C23.9428 111.872 23.9428 112.149 23.7727 112.32L22.9437 113.193C19.9887 117.154 21.4556 127.291 26.6213 137.279C32.191 148.055 39.9716 155.445 44.7335 154.551L44.7972 154.529C45.0523 154.487 45.2862 154.636 45.3499 154.891C45.3925 155.147 45.2437 155.381 44.9886 155.445C44.9673 155.445 44.946 155.445 44.9248 155.466L44.0532 155.637H44.0319L23.3263 158.938C23.2838 158.938 23.2413 158.959 23.22 158.959ZM21.0304 115.173L8.46672 128.249C6.1283 130.89 7.19122 138.6 10.9327 145.819C14.5891 152.89 19.7549 158.001 23.22 158.022L41.5022 155.104C36.5703 153.358 30.4904 146.777 25.7923 137.726C21.328 129.101 19.6061 120.327 21.0304 115.173Z" fill="#0D0C22"/>
</g>
<g id="Group_10">
<path id="Vector_18" d="M112.105 74.7529C108.767 76.4566 109.256 84.3576 113.508 92.2373C120.629 105.42 126.305 103.865 126.964 103.631C126.986 103.631 126.986 103.652 126.964 103.652L114.741 113.513C111.148 108.465 107.726 102.843 104.579 96.7735C101.582 90.9595 99.0522 85.1669 97.054 79.5446L112.105 74.7529Z" fill="#0D0C22"/>
<path id="Vector_19" d="M114.741 113.981C114.72 113.981 114.699 113.981 114.678 113.981C114.55 113.959 114.444 113.896 114.359 113.789C110.681 108.614 107.258 102.949 104.176 97.0074C101.221 91.3 98.67 85.486 96.6292 79.736C96.5867 79.6082 96.5867 79.4804 96.6505 79.3739C96.7143 79.2674 96.7993 79.1823 96.9269 79.1397L111.978 74.3479C112.212 74.2841 112.467 74.3905 112.552 74.6248C112.637 74.8591 112.552 75.1146 112.339 75.2211C111.616 75.5831 111.085 76.3072 110.766 77.372C109.724 80.7156 111 86.636 113.955 92.0666C120.906 104.93 126.263 103.46 126.837 103.247C127.05 103.162 127.305 103.269 127.411 103.46C127.518 103.652 127.475 103.929 127.305 104.078L115.039 113.874C114.954 113.938 114.848 113.981 114.741 113.981ZM97.6709 79.8424C99.6904 85.4008 102.156 91.0231 105.005 96.5602C107.981 102.31 111.297 107.783 114.848 112.831L125.456 104.27C123.032 104.163 118.462 102.353 113.104 92.45C110.001 86.7212 108.725 80.673 109.852 77.0313C110.001 76.5628 110.171 76.1581 110.383 75.7748L97.6709 79.8424Z" fill="#0D0C22"/>
</g>
</g>
</g>
<g id="Group_11">
<g id="Group_12">
<path id="Vector_20" d="M174.987 44.3715C184.704 39.2566 188.464 27.2505 183.384 17.5551C178.305 7.85967 166.31 4.14646 156.593 9.26138C146.876 14.3763 143.116 26.3824 148.195 36.0778C153.275 45.7732 165.27 49.4865 174.987 44.3715Z" fill="#0D0C22"/>
<g id="Group_13">
<path id="Vector_21" d="M156.745 22.4268C157.68 21.149 159.062 20.3611 160.635 20.1907C161.826 20.0629 162.931 20.3185 163.973 20.9574C164.504 21.2768 164.972 21.6814 165.418 22.1713C165.737 21.5963 166.12 21.0851 166.566 20.6592C167.438 19.8073 168.479 19.3175 169.649 19.1897C171.222 19.0194 172.752 19.4879 173.943 20.5314C175.112 21.5537 175.856 23.0444 176.047 24.7268C176.239 26.4519 175.771 28.113 174.581 29.9445C173.518 31.5843 171.902 33.288 170.031 35.2899C169.394 35.9714 168.671 36.7381 167.927 37.5473C167.735 37.7603 167.459 37.9094 167.161 37.9307C166.864 37.9733 166.587 37.8881 166.332 37.7177C165.418 37.0788 164.547 36.4825 163.781 35.9714C161.528 34.4381 159.572 33.1177 158.169 31.7547C156.596 30.2426 155.788 28.7093 155.597 26.9843C155.427 25.3018 155.831 23.6833 156.745 22.4268Z" fill="white"/>
</g>
</g>
<g id="Group_14">
<g id="Group_15">
<path id="Vector_22" d="M230.121 45.46C237.233 38.3305 237.233 26.7713 230.12 19.6419C223.008 12.5124 211.476 12.5124 204.363 19.6419C197.251 26.7713 197.251 38.3305 204.363 45.46C211.476 52.5895 223.008 52.5895 230.121 45.46Z" fill="white"/>
<path id="Vector_23" d="M217.246 51.263C206.957 51.263 198.56 42.8722 198.56 32.5433C198.56 22.2358 206.936 13.8237 217.246 13.8237C227.556 13.8237 235.932 22.2145 235.932 32.5433C235.932 42.8509 227.556 51.263 217.246 51.263ZM217.246 14.7607C207.467 14.7607 199.495 22.7256 199.495 32.5433C199.495 42.3397 207.446 50.3259 217.246 50.3259C227.025 50.3259 234.997 42.361 234.997 32.5433C234.997 22.7469 227.046 14.7607 217.246 14.7607Z" fill="white"/>
</g>
<path id="Vector_24" d="M221.541 34.1565C220.631 34.1565 219.835 34.5934 219.304 35.2772L213.824 33.1308C213.824 33.0548 213.843 32.9979 213.843 32.9219C213.843 32.7889 213.824 32.656 213.805 32.523L219.417 29.9207C219.929 30.5096 220.688 30.8895 221.541 30.9084C223.096 30.9084 224.385 29.6358 224.385 28.0592C224.385 26.4827 223.115 25.191 221.541 25.191C219.986 25.191 218.697 26.4637 218.697 28.0402C218.697 28.1732 218.716 28.3062 218.735 28.4391L213.122 31.0414C212.611 30.4526 211.852 30.0727 210.999 30.0537C209.444 30.0537 208.155 31.3263 208.155 32.9029C208.155 34.4795 209.425 35.7711 210.999 35.7711C211.909 35.7711 212.705 35.3342 213.236 34.6504L218.716 36.7968C218.716 36.8728 218.697 36.9298 218.697 37.0058C218.697 38.5823 219.967 39.874 221.541 39.874C223.096 39.874 224.385 38.6013 224.385 37.0247C224.366 35.4482 223.096 34.1755 221.541 34.1565Z" fill="#0D0C22"/>
</g>
<g id="Group_16">
<path id="Vector_25" d="M222.409 103.305C230.75 97.5017 232.847 86.0597 227.092 77.7486C221.337 69.4374 209.909 67.4046 201.568 73.208C193.227 79.0114 191.13 90.4535 196.885 98.7646C202.64 107.076 214.068 109.109 222.409 103.305Z" fill="#0D0C22"/>
<path id="Vector_26" d="M207.686 96.3338L205.127 82.4389C205.005 81.7268 205.655 81.1369 206.345 81.3199L221.475 85.6125C222.246 85.8363 222.429 86.8332 221.799 87.3214L209.209 96.9238C208.661 97.3714 207.828 97.0662 207.686 96.3338Z" fill="white"/>
</g>
<g id="Group_17">
<g id="Group_18">
<path id="Vector_27" d="M211.807 162.884C222.109 157.858 226.421 145.466 221.439 135.207C216.456 124.948 204.066 120.707 193.765 125.734C183.463 130.761 179.151 143.152 184.133 153.411C189.116 163.67 201.506 167.911 211.807 162.884Z" fill="white"/>
<path id="Vector_28" d="M202.688 165.476C200.477 165.476 198.223 165.135 196.034 164.389C190.677 162.6 186.34 158.852 183.832 153.784C181.323 148.736 180.94 143.008 182.747 137.641C186.489 126.588 198.521 120.561 209.597 124.245C214.954 126.034 219.291 129.783 221.799 134.851C224.307 139.898 224.69 145.627 222.883 150.994C219.864 159.853 211.552 165.476 202.688 165.476ZM202.9 124.118C194.418 124.118 186.468 129.484 183.598 137.96C181.876 143.093 182.237 148.566 184.639 153.379C187.042 158.213 191.187 161.813 196.31 163.516C206.897 167.03 218.398 161.28 221.969 150.717C223.691 145.585 223.33 140.111 220.927 135.298C218.525 130.464 214.38 126.865 209.257 125.161C207.152 124.437 205.005 124.118 202.9 124.118Z" fill="#0D0C22"/>
</g>
<g id="Group_19">
<path id="Vector_29" d="M212.492 142.145C212.299 146.336 204.343 156.133 202.446 158.427C202.252 158.668 201.846 158.651 201.672 158.392C200.471 156.668 196.503 150.872 194.432 146.181C193.6 144.318 193.077 142.628 193.135 141.437C193.348 136.677 197.858 132.969 203.201 133.158C208.543 133.383 212.705 137.384 212.492 142.145Z" fill="#0D0C22"/>
<path id="Vector_30" d="M205.944 144.595C207.675 143.053 207.675 140.552 205.944 139.009C204.213 137.467 201.406 137.467 199.675 139.009C197.944 140.552 197.944 143.053 199.675 144.595C201.406 146.138 204.213 146.138 205.944 144.595Z" fill="white"/>
</g>
</g>
</g>
</g>
</svg>
