<svg width="172" height="30" viewBox="0 0 172 30" fill="none" xmlns="http://www.w3.org/2000/svg">
<g id="Group 36494">
<g id="Twitter">
<path id="Vector" d="M14.6864 1.19421C7.12631 1.19421 1 7.32052 1 14.8807C1 22.4408 7.12631 28.5671 14.6864 28.5671C22.2466 28.5671 28.3729 22.3756 28.3729 14.8807C28.3729 7.3857 22.1814 1.19421 14.6864 1.19421Z" stroke="black" stroke-miterlimit="10"/>
<path id="Vector_2" d="M19.595 12.3282C19.595 12.3929 19.595 12.5224 19.595 12.7166C19.595 16.0178 17.0504 19.837 12.4179 19.837C10.9172 19.837 9.67754 19.3839 8.56836 18.7365C8.7641 18.7365 8.95984 18.7365 9.22082 18.7365C10.3953 18.7365 11.5044 18.3482 12.3526 17.6361C11.2435 17.6361 10.33 16.9241 9.93853 15.8884C10.1343 15.8884 10.1995 15.8884 10.3953 15.8884C10.6562 15.8884 10.852 15.8884 11.0477 15.8237C9.87328 15.6295 9.02508 14.529 9.02508 13.3639C9.41656 13.5581 9.74279 13.6228 10.1343 13.6228C9.48181 13.1697 9.02508 12.4576 9.02508 11.5514C9.02508 11.0983 9.09033 10.6452 9.41656 10.2568C10.591 11.8103 12.5484 12.7813 14.571 12.9108C14.571 12.7166 14.571 12.5224 14.571 12.3929C14.571 11.0336 15.6802 9.86841 17.1156 9.86841C17.8333 9.86841 18.4858 10.1273 18.9425 10.7099C19.4645 10.6452 20.0517 10.3215 20.5084 10.0626C20.3127 10.5804 19.9864 11.163 19.3992 11.422C19.9212 11.3572 20.3779 11.2278 20.8999 11.0336C20.5084 11.4867 20.0517 12.0045 19.595 12.3282Z" fill="black"/>
</g>
<g id="FB">
<path id="Vector_3" d="M62.2289 28.3729C69.7891 28.3729 75.9154 22.2466 75.9154 14.6864C75.9154 7.12631 69.7891 1 62.2289 1C54.6688 1 48.5425 7.12631 48.5425 14.6864C48.5425 22.2466 54.6688 28.3729 62.2289 28.3729Z" stroke="black" stroke-miterlimit="10"/>
<path id="Vector_4" d="M60.6782 20.4839H63.1575V14.5934H64.8539L65.0497 12.522H63.1575V11.551C63.1575 11.0332 63.288 10.7743 63.9405 10.7743H64.9192V8.70288H63.2228C61.2654 8.70288 60.5477 9.67385 60.5477 11.3568V12.522H59.4385V14.5934H60.6129V20.4839H60.6782Z" fill="black"/>
</g>
<g id="Insta">
<path id="Vector_5" d="M109.771 28.6318C117.332 28.6318 123.458 22.5055 123.458 14.9454C123.458 7.38522 117.332 1.25891 109.771 1.25891C102.211 1.25891 96.085 7.38522 96.085 14.9454C96.085 22.5055 102.211 28.6318 109.771 28.6318Z" stroke="black" stroke-miterlimit="10"/>
<g id="Group">
<path id="Vector_6" d="M115.398 12.6514C115.398 12.1336 115.268 11.7452 115.072 11.2274C114.942 10.839 114.681 10.5153 114.354 10.2564C114.028 9.99747 113.767 9.73855 113.376 9.54436C112.984 9.35016 112.462 9.2207 111.94 9.2207C111.353 9.2207 111.157 9.2207 109.722 9.2207C108.221 9.2207 108.091 9.2207 107.503 9.2207C106.981 9.2207 106.59 9.35016 106.068 9.54436C105.677 9.67382 105.35 9.93274 105.089 10.2564C104.763 10.5801 104.567 10.839 104.372 11.2274C104.176 11.6157 104.045 12.1336 104.045 12.6514C104.045 13.234 104.045 13.4282 104.045 14.8523C104.045 16.2764 104.045 16.4706 104.045 17.0531C104.045 17.571 104.176 17.9594 104.372 18.4772C104.698 19.254 105.285 19.9013 106.068 20.1602C106.46 20.3544 106.981 20.4839 107.503 20.4839C108.091 20.4839 108.286 20.4839 109.722 20.4839C111.157 20.4839 111.353 20.4839 111.94 20.4839C112.462 20.4839 112.854 20.3544 113.376 20.1602C114.159 19.8366 114.811 19.254 115.072 18.4772C115.268 18.0888 115.398 17.571 115.398 17.0531C115.398 16.4706 115.398 16.2764 115.398 14.8523C115.398 13.3635 115.398 13.234 115.398 12.6514ZM113.963 14.8523C113.963 16.3411 113.963 16.4706 113.963 17.0531C113.963 17.3768 113.832 17.6357 113.767 17.9594C113.571 18.3478 113.245 18.6714 112.854 18.8656C112.527 18.9951 112.266 19.0598 111.94 19.0598C111.353 19.0598 111.222 19.0598 109.722 19.0598C108.221 19.0598 108.091 19.0598 107.503 19.0598C107.177 19.0598 106.916 18.9303 106.59 18.8656C106.199 18.6714 105.872 18.3478 105.677 17.9594C105.546 17.6357 105.481 17.3768 105.481 17.0531C105.481 16.4706 105.481 16.3411 105.481 14.8523C105.481 13.4282 105.481 13.234 105.481 12.6514C105.481 12.3278 105.611 12.0689 105.677 11.7452C105.872 11.3568 106.199 11.0332 106.59 10.839C106.916 10.7095 107.177 10.6448 107.503 10.6448C108.025 10.6448 108.221 10.6448 109.722 10.6448C111.157 10.6448 111.353 10.6448 111.94 10.6448C112.266 10.6448 112.527 10.7742 112.854 10.839C113.245 11.0332 113.571 11.3568 113.767 11.7452C113.898 12.0689 113.963 12.3278 113.963 12.6514C113.963 13.234 113.963 13.4282 113.963 14.8523Z" fill="black"/>
<path id="Vector_7" d="M109.787 12.4573C108.482 12.4573 107.373 13.5577 107.373 14.8523C107.373 16.1469 108.482 17.2474 109.787 17.2474C111.092 17.2474 112.201 16.1469 112.201 14.8523C112.201 13.5577 111.092 12.4573 109.787 12.4573ZM109.787 16.0175C109.199 16.0175 108.612 15.4996 108.612 14.8523C108.612 14.205 109.134 13.6872 109.787 13.6872C110.504 13.6872 110.961 14.205 110.961 14.8523C110.961 15.4349 110.374 16.0175 109.787 16.0175Z" fill="black"/>
<path id="Vector_8" d="M112.593 11.3567C112.201 11.3567 111.81 11.6803 111.81 12.1335C111.81 12.5218 112.136 12.9102 112.593 12.9102C113.114 12.9102 113.375 12.5866 113.375 12.1335C113.245 11.6156 112.984 11.3567 112.593 11.3567Z" fill="black"/>
</g>
</g>
<g id="Youtube">
<path id="Vector_9" d="M157.313 1.12939C149.753 1.12939 143.627 7.25571 143.627 14.8158C143.627 22.376 149.753 28.5023 157.313 28.5023C164.808 28.5023 171 22.3108 171 14.8158C171 7.32088 164.808 1.12939 157.313 1.12939Z" stroke="black" stroke-miterlimit="10"/>
<g id="Group_2">
<path id="Vector_10" d="M163.005 17.5067C162.874 18.0892 162.418 18.6071 161.7 18.6718C160.199 18.8013 158.764 18.866 157.263 18.866C155.762 18.866 154.327 18.866 152.826 18.6718C152.239 18.5423 151.717 18.154 151.521 17.5067C151.326 16.6004 151.326 15.6942 151.326 14.7232C151.326 13.817 151.326 12.846 151.521 11.9398C151.652 11.3572 152.109 10.8394 152.826 10.7746C154.327 10.6452 155.762 10.5804 157.263 10.5804C158.764 10.5804 160.199 10.5804 161.7 10.7746C162.287 10.9041 162.809 11.2925 163.005 11.9398C163.2 12.846 163.2 13.7523 163.2 14.7232C163.266 15.6295 163.2 16.6004 163.005 17.5067Z" fill="black"/>
<path id="Vector_11" d="M156.35 16.2118L159.481 14.3994L156.35 12.5869V16.2118Z" fill="white"/>
</g>
</g>
</g>
</svg>
