<svg width="30" height="30" viewBox="0 0 30 30" fill="none" xmlns="http://www.w3.org/2000/svg">
<g id="Group 8270">
<path id="Rectangle 3123" d="M30 15C30 6.71573 23.2843 0 15 0C6.71573 0 0 6.71573 0 15C0 23.2843 6.71573 30 15 30C23.2843 30 30 23.2843 30 15Z" fill="#FAE86E"/>
<path id="icons8-whatsapp (1)" d="M15.5 6.50007C14.1036 6.4942 12.7302 6.85545 11.5174 7.54763C10.3046 8.23981 9.29505 9.2386 8.5899 10.4439C7.88476 11.6492 7.50879 13.0187 7.49968 14.415C7.49057 15.8114 7.84865 17.1857 8.53802 18.4001L7.51302 22.0601C7.49681 22.1186 7.49617 22.1803 7.51118 22.2391C7.52618 22.2979 7.55631 22.3517 7.59856 22.3953C7.64081 22.4389 7.69372 22.4706 7.75204 22.4874C7.81036 22.5042 7.87206 22.5055 7.93102 22.4911L11.747 21.5451C12.819 22.1163 14.007 22.4357 15.2209 22.479C16.4348 22.5223 17.6425 22.2883 18.7524 21.7948C19.8623 21.3014 20.8452 20.5614 21.6262 19.6312C22.4073 18.701 22.966 17.6049 23.26 16.4264C23.554 15.2479 23.5755 14.0178 23.3228 12.8297C23.0702 11.6417 22.5501 10.5268 21.802 9.56985C21.0539 8.61292 20.0975 7.83909 19.0055 7.30716C17.9135 6.77524 16.7147 6.49922 15.5 6.50007ZM15.5 7.20007C16.6147 7.20129 17.7143 7.45777 18.7145 7.94983C19.7147 8.44189 20.5889 9.15647 21.2702 10.0388C21.9514 10.9211 22.4215 11.9477 22.6445 13.0398C22.8675 14.132 22.8374 15.2607 22.5565 16.3394C22.2756 17.4181 21.7515 18.4182 21.0242 19.2629C20.2969 20.1077 19.3859 20.7747 18.3609 21.2127C17.3359 21.6508 16.2241 21.8483 15.111 21.7901C13.9978 21.7319 12.9128 21.4196 11.939 20.8771C11.862 20.8341 11.7716 20.8219 11.686 20.8431L8.34402 21.6711L9.24402 18.4711C9.25677 18.4259 9.26024 18.3786 9.25423 18.332C9.24821 18.2854 9.23283 18.2405 9.20902 18.2001C8.55712 17.0914 8.20973 15.8301 8.202 14.5439C8.19427 13.2578 8.52648 11.9924 9.16501 10.876C9.80353 9.75949 10.7257 8.83153 11.8381 8.18603C12.9506 7.54053 14.2138 7.2004 15.5 7.20007ZM12.593 10.3261C12.4418 10.329 12.2928 10.3629 12.1552 10.4256C12.0176 10.4884 11.8943 10.5788 11.793 10.6911C11.536 10.9424 11.3315 11.2425 11.1916 11.5736C11.0517 11.9048 10.9791 12.2605 10.978 12.6201C11.0354 13.4648 11.353 14.2711 11.887 14.9281C11.878 14.9161 12.011 15.1091 12.187 15.3421C12.4192 15.644 12.6668 15.9338 12.929 16.2101C13.6598 17.0087 14.5441 17.6519 15.529 18.1011C15.9212 18.2679 16.3217 18.4145 16.729 18.5401C17.1986 18.6811 17.6943 18.7126 18.178 18.6321C18.5044 18.57 18.8147 18.4421 19.09 18.2561C19.4247 18.0768 19.6892 17.7901 19.841 17.4421C19.9258 17.2114 19.9806 16.9707 20.004 16.7261C20.0117 16.6349 20.0117 16.5432 20.004 16.4521C20.0066 16.3554 19.9798 16.2602 19.927 16.1791C19.765 15.9131 19.582 15.9061 19.39 15.8111C19.284 15.7581 18.981 15.6111 18.677 15.4661C18.373 15.3211 18.111 15.1931 17.949 15.1361C17.8215 15.0787 17.6813 15.055 17.542 15.0671C17.4487 15.0829 17.3597 15.1177 17.2804 15.1693C17.2011 15.2209 17.1333 15.2882 17.081 15.3671C16.981 15.5121 16.588 15.9791 16.468 16.1161L16.429 16.0961C16.28 16.0221 16.098 15.9601 15.829 15.8171C15.4778 15.6312 15.1501 15.404 14.853 15.1401C14.4453 14.7621 14.0947 14.3268 13.812 13.8481C13.82 13.8381 13.812 13.8481 13.828 13.8331C13.952 13.7111 14.062 13.5651 14.155 13.4581C14.258 13.3338 14.3432 13.1958 14.408 13.0481C14.4555 12.9428 14.4786 12.8281 14.4756 12.7126C14.4727 12.5972 14.4438 12.4838 14.391 12.3811C14.396 12.3911 14.352 12.2931 14.304 12.1811C14.256 12.0691 14.195 11.9211 14.13 11.7651C14 11.4531 13.854 11.1021 13.768 10.8971C13.6951 10.6839 13.5454 10.5057 13.348 10.3971C13.24 10.3468 13.1206 10.326 13.002 10.3371C12.874 10.3281 12.733 10.3261 12.593 10.3261ZM12.593 11.0261C12.727 11.0261 12.859 11.0261 12.97 11.0331C13.081 11.0401 13.077 11.0391 13.055 11.0331C13.033 11.0271 13.063 11.0191 13.128 11.1731C13.213 11.3731 13.359 11.7261 13.489 12.0391C13.554 12.1961 13.615 12.3391 13.664 12.4581C13.713 12.5771 13.739 12.6381 13.77 12.6991C13.8 12.7581 13.797 12.7201 13.787 12.7411C13.7479 12.8348 13.695 12.9221 13.63 13.0001C13.517 13.1301 13.402 13.2751 13.341 13.3361C13.248 13.4154 13.1759 13.5164 13.131 13.6301C13.1031 13.7202 13.0945 13.8153 13.1057 13.909C13.1169 14.0027 13.1476 14.093 13.196 14.1741C13.5224 14.7288 13.9311 15.2309 14.408 15.6631C14.7464 15.9633 15.1193 16.2222 15.519 16.4341C15.828 16.5971 16.08 16.6921 16.136 16.7201C16.2726 16.7979 16.4294 16.8327 16.586 16.8201C16.7456 16.7951 16.8911 16.7139 16.996 16.5911C17.12 16.4501 17.489 16.0291 17.666 15.7701C17.673 15.7701 17.671 15.7701 17.73 15.7921C17.757 15.8021 18.093 15.9521 18.393 16.0921C18.693 16.2321 18.993 16.3831 19.093 16.4321C19.236 16.5031 19.303 16.5491 19.321 16.5491C19.3237 16.587 19.3237 16.6251 19.321 16.6631C19.3025 16.8476 19.2608 17.029 19.197 17.2031C19.0829 17.3947 18.9218 17.554 18.729 17.6661C18.5314 17.7923 18.3146 17.8855 18.087 17.9421C17.7072 18.0078 17.3173 17.9845 16.948 17.8741C16.5614 17.7556 16.1812 17.6171 15.809 17.4591C14.9112 17.0458 14.1048 16.4577 13.437 15.7291C13.1915 15.4702 12.9595 15.1989 12.742 14.9161C12.575 14.6991 12.502 14.5861 12.442 14.5061C12.0173 13.9601 11.7516 13.3074 11.674 12.6201C11.6628 12.346 11.7133 12.0729 11.8216 11.821C11.93 11.569 12.0934 11.3445 12.3 11.1641C12.3366 11.1217 12.3815 11.0873 12.4319 11.0629C12.4823 11.0385 12.5371 11.0246 12.593 11.0221V11.0261Z" fill="black" stroke="black" stroke-width="0.3"/>
</g>
</svg>
