<svg width="30" height="30" viewBox="0 0 30 30" fill="none" xmlns="http://www.w3.org/2000/svg">
<g id="Group 8270">
<path id="Rectangle 3123" d="M30 15C30 6.71573 23.2843 0 15 0C6.71573 0 0 6.71573 0 15C0 23.2843 6.71573 30 15 30C23.2843 30 30 23.2843 30 15Z" fill="#FAE86E"/>
<g id="Group 8301">
<path id="Vector" d="M23 15.692V17.471C23 19.941 21.5 21 19.25 21H11.75C9.5 21 8 19.941 8 17.471V12.529C8 10.059 9.5 9 11.75 9H19.25C21.5 9 23 10.059 23 12.529" stroke="black" stroke-width="1.2" stroke-linecap="round" stroke-linejoin="round"/>
<path id="Vector_2" d="M19.5 12.52L17 15.02C16.6002 15.414 16.0614 15.6349 15.5 15.6349C14.9386 15.6349 14.3998 15.414 14 15.02L11.5 12.52" stroke="black" stroke-width="1.2" stroke-linecap="round" stroke-linejoin="round"/>
</g>
</g>
</svg>
