<svg width="30" height="30" viewBox="0 0 30 30" fill="none" xmlns="http://www.w3.org/2000/svg">
<g id="Group 8270">
<path id="Rectangle 3123" d="M30 15C30 6.71573 23.2843 0 15 0C6.71573 0 0 6.71573 0 15C0 23.2843 6.71573 30 15 30C23.2843 30 30 23.2843 30 15Z" fill="#FAE86E"/>
<g id="Group 8306">
<g id="Group 8303">
<g id="Group 8302">
<path id="Path 7302" d="M21.4402 16.3661C21.6678 15.2933 21.6238 14.1807 21.3121 13.1292C21.0005 12.0778 20.4311 11.1209 19.6557 10.3454C18.8803 9.56987 17.9235 9.00037 16.8721 8.68859C15.8207 8.37682 14.708 8.33265 13.6352 8.56009C12.929 8.11832 12.0939 7.92901 11.2662 8.02307C10.4385 8.11713 9.6671 8.48901 9.07801 9.07799C8.48892 9.66696 8.11689 10.4383 8.02267 11.2659C7.92844 12.0936 8.11759 12.9288 8.55922 13.6351C8.33164 14.7079 8.37566 15.8205 8.6873 16.8719C8.99894 17.9234 9.56832 18.8803 10.3437 19.6558C11.1191 20.4313 12.076 21.0008 13.1274 21.3126C14.1788 21.6244 15.2914 21.6685 16.3642 21.4411C16.9502 21.8071 17.6273 22.0011 18.3182 22.0011C18.4176 22.0011 18.5176 21.9971 18.6182 21.9891C19.248 21.9375 19.854 21.7246 20.3777 21.3711C20.9015 21.0176 21.3255 20.5352 21.609 19.9704C21.8924 19.4056 22.0258 18.7774 21.9962 18.1462C21.9667 17.5149 21.7752 16.9019 21.4402 16.3661ZM20.3132 20.3141C19.8446 20.785 19.2246 21.0749 18.5628 21.1325C17.901 21.1902 17.2402 21.0118 16.6972 20.6291C16.6471 20.5939 16.59 20.5698 16.5299 20.5584C16.4697 20.547 16.4077 20.5486 16.3482 20.5631C15.3945 20.794 14.3974 20.7758 13.4527 20.5104C12.508 20.2449 11.6474 19.7409 10.9535 19.047C10.2597 18.3531 9.7559 17.4924 9.49054 16.5477C9.22519 15.6029 9.20717 14.6058 9.43822 13.6521C9.45309 13.5921 9.4549 13.5296 9.44351 13.4689C9.43212 13.4082 9.40781 13.3506 9.37222 13.3001C8.99435 12.7567 8.81951 12.0977 8.87827 11.4385C8.93703 10.7792 9.22566 10.1616 9.69368 9.69355C10.1617 9.22553 10.7793 8.93691 11.4386 8.87815C12.0979 8.81939 12.7568 8.99422 13.3002 9.37209C13.3503 9.40732 13.4074 9.43143 13.4676 9.44281C13.5278 9.45419 13.5897 9.45259 13.6492 9.43809C14.6029 9.20704 15.6 9.22506 16.5448 9.49042C17.4895 9.75577 18.3502 10.2596 19.0441 10.9534C19.7381 11.6472 20.242 12.5078 20.5075 13.4525C20.773 14.3972 20.7911 15.3943 20.5602 16.3481C20.5458 16.4076 20.5442 16.4695 20.5556 16.5297C20.567 16.5899 20.5911 16.6469 20.6262 16.6971C21.0095 17.2399 21.1883 17.9008 21.131 18.5628C21.0737 19.2248 20.784 19.8452 20.3132 20.3141Z" fill="black" stroke="black" stroke-width="0.2"/>
</g>
</g>
<g id="Group 8305">
<g id="Group 8304">
<path id="Path 7303" d="M15.085 14.5031C14.144 14.1851 13.078 13.824 13.078 13.291C13.078 12.611 13.958 12.036 14.999 12.036C16.04 12.036 16.92 12.611 16.92 13.291C16.92 13.4119 16.968 13.5277 17.0534 13.6131C17.1389 13.6986 17.2547 13.7466 17.3755 13.7466C17.4963 13.7466 17.6122 13.6986 17.6976 13.6131C17.783 13.5277 17.831 13.4119 17.831 13.291C17.8223 12.9758 17.7371 12.6673 17.5827 12.3923C17.4284 12.1172 17.2096 11.8838 16.945 11.7121C16.3679 11.3295 15.6909 11.1255 14.9985 11.1255C14.3061 11.1255 13.6291 11.3295 13.052 11.7121C12.7875 11.8838 12.5686 12.1172 12.4143 12.3923C12.26 12.6673 12.1748 12.9758 12.166 13.291C12.1811 13.587 12.2772 13.873 12.4438 14.118C12.6105 14.363 12.8413 14.5574 13.111 14.68C13.6477 14.9622 14.2103 15.1919 14.791 15.3661C15.837 15.7201 16.919 16.0861 16.919 16.7121C16.919 17.3921 16.039 17.967 14.998 17.967C13.957 17.967 13.077 17.3921 13.077 16.7121C13.077 16.5912 13.029 16.4754 12.9436 16.39C12.8582 16.3045 12.7423 16.2565 12.6215 16.2565C12.5007 16.2565 12.3848 16.3045 12.2994 16.39C12.214 16.4754 12.166 16.5912 12.166 16.7121C12.1748 17.0273 12.26 17.3358 12.4143 17.6108C12.5686 17.8859 12.7875 18.1193 13.052 18.291C13.6291 18.6736 14.3061 18.8776 14.9985 18.8776C15.6909 18.8776 16.3679 18.6736 16.945 18.291C17.2096 18.1193 17.4284 17.8859 17.5827 17.6108C17.7371 17.3358 17.8223 17.0273 17.831 16.7121C17.832 15.4321 16.373 14.9381 15.085 14.5031Z" fill="black" stroke="black" stroke-width="0.2"/>
</g>
</g>
</g>
</g>
</svg>
