<svg width="40" height="40" viewBox="0 0 40 40" fill="none" xmlns="http://www.w3.org/2000/svg">
<g id="Group 37582">
<g id="Group 37581">
<path id="Rectangle 4011" d="M0 0H40V40H0V0Z" fill="black"/>
<g id="Group 5">
<g id="Group 2">
<path id="XMLID_2_" d="M31.4832 25.0139C32.1207 24.3618 32.6042 23.6115 32.9347 22.7659C33.2663 21.9204 33.4315 21.0145 33.4295 20.0605C33.4295 19.1065 33.255 18.2005 32.9072 17.355C32.5583 16.5095 32.0595 15.752 31.4108 15.0999C30.7487 14.4458 29.9827 13.933 29.1115 13.5891C28.2404 13.2441 27.3111 13.0435 26.3267 13.0435H21.2192V22.6073H24.2621V16.1041H26.3267C26.9153 16.1041 27.457 16.2403 27.9496 16.4337C28.4423 16.6272 28.8677 16.9353 29.2288 17.2803C29.5899 17.6242 29.8684 18.0347 30.0683 18.5127C30.2673 18.9898 30.3652 19.5046 30.3652 20.0595C30.3652 20.6399 30.2662 21.1691 30.0683 21.6594C29.8694 22.1477 29.593 22.5571 29.238 22.9082C28.8851 23.2583 28.4576 23.5091 27.9588 23.7005C27.459 23.895 26.9153 23.9462 26.3267 23.9462H19.6983V13.0435H16.4657V17.8249H9.99942V13.0435H6.95654V27.0059H9.99942V20.8855H16.4646V27.0059H26.3267C27.3366 27.0059 28.2975 26.8748 29.2115 26.5002C29.645 26.318 30.053 26.1562 30.4386 25.9024C30.8232 25.6485 31.17 25.3537 31.4832 25.0139Z" fill="#FAE86E"/>
</g>
</g>
</g>
</g>
</svg>
