<svg width="93" height="40" viewBox="0 0 93 40" fill="none" xmlns="http://www.w3.org/2000/svg">
<g id="Group 4">
<g id="Group 3">
<g id="Hooman Digital">
<path d="M4.57281 39.797H0V24.9476H4.77541C6.21285 24.9476 7.44288 25.2449 8.46549 25.8395C9.48811 26.4292 10.2719 27.2775 10.817 28.3845C11.3621 29.4866 11.6346 30.8062 11.6346 32.3433C11.6346 33.8901 11.3597 35.2218 10.8098 36.3384C10.2599 37.4502 9.45915 38.3058 8.4076 38.9052C7.35605 39.4997 6.07779 39.797 4.57281 39.797ZM1.79439 38.2018H4.45705C5.68225 38.2018 6.69763 37.965 7.50317 37.4913C8.30872 37.0176 8.90927 36.3433 9.3048 35.4684C9.70034 34.5934 9.89811 33.5518 9.89811 32.3433C9.89811 31.1445 9.70276 30.1125 9.31204 29.2473C8.92133 28.3772 8.33767 27.7101 7.56106 27.2461C6.78445 26.7772 5.81731 26.5428 4.65964 26.5428H1.79439V38.2018Z" fill="black"/>
<path d="M16.439 24.9476V39.797H14.6446V24.9476H16.439Z" fill="black"/>
<path d="M30.1664 29.5881C30.0073 29.0999 29.7974 28.6624 29.537 28.2757C29.2813 27.8842 28.975 27.5506 28.6181 27.2751C28.2659 26.9996 27.8656 26.7893 27.417 26.6443C26.9684 26.4993 26.4764 26.4268 25.9409 26.4268C25.063 26.4268 24.2647 26.654 23.546 27.1083C22.8273 27.5627 22.2557 28.2322 21.8312 29.1168C21.4067 30.0014 21.1945 31.0865 21.1945 32.3723C21.1945 33.6581 21.4091 34.7433 21.8384 35.6279C22.2677 36.5124 22.849 37.1819 23.5822 37.6363C24.3154 38.0907 25.1402 38.3179 26.0567 38.3179C26.9057 38.3179 27.6533 38.1366 28.2997 37.7741C28.9509 37.4067 29.4574 36.8895 29.8191 36.2224C30.1857 35.5505 30.369 34.7602 30.369 33.8515L30.9189 33.9675H26.4619V32.3723H32.1056V33.9675C32.1056 35.1904 31.8451 36.2538 31.3241 37.1578C30.808 38.0617 30.0941 38.7626 29.1824 39.2604C28.2756 39.7535 27.2337 40 26.0567 40C24.7447 40 23.5918 39.6907 22.5982 39.0719C21.6093 38.4532 20.8375 37.5735 20.2828 36.4327C19.7329 35.2919 19.458 33.9385 19.458 32.3723C19.458 31.1977 19.6147 30.1415 19.9283 29.2038C20.2466 28.2612 20.6952 27.4588 21.2741 26.7966C21.8529 26.1343 22.5379 25.6268 23.3289 25.2739C24.12 24.9211 24.9907 24.7446 25.9409 24.7446C26.7224 24.7446 27.4507 24.8631 28.126 25.0999C28.8062 25.3319 29.4116 25.663 29.9422 26.0933C30.4776 26.5186 30.9238 27.0286 31.2807 27.6231C31.6377 28.2129 31.8837 28.8678 32.0187 29.5881H30.1664Z" fill="black"/>
<path d="M36.9732 24.9476V39.797H35.1788V24.9476H36.9732Z" fill="black"/>
<path d="M39.7607 26.5428V24.9476H50.8744V26.5428H46.2147V39.797H44.4203V26.5428H39.7607Z" fill="black"/>
<path d="M52.5204 39.797H50.6392L56.0803 24.9476H57.9325L63.3736 39.797H61.4924L57.0643 27.2969H56.9485L52.5204 39.797ZM53.215 33.9965H60.7978V35.5916H53.215V33.9965Z" fill="black"/>
<path d="M65.6817 39.797V24.9476H67.4761V38.2018H74.3643V39.797H65.6817Z" fill="black"/>
</g>
<g id="Hooman Digital_2">
<path d="M0 15.0524V0.203019H2.68436V6.48934H9.55081V0.203019H12.2424V15.0524H9.55081V8.74429H2.68436V15.0524H0Z" fill="black"/>
<path d="M28.4028 7.62769C28.4028 9.22767 28.1037 10.598 27.5056 11.7388C26.9123 12.8748 26.1019 13.7448 25.0745 14.3491C24.0519 14.9533 22.8918 15.2554 21.5942 15.2554C20.2967 15.2554 19.1342 14.9533 18.1067 14.3491C17.0841 13.74 16.2738 12.8675 15.6756 11.7316C15.0823 10.5908 14.7857 9.22284 14.7857 7.62769C14.7857 6.02771 15.0823 4.65976 15.6756 3.52382C16.2738 2.38305 17.0841 1.51055 18.1067 0.906332C19.1342 0.302111 20.2967 0 21.5942 0C22.8918 0 24.0519 0.302111 25.0745 0.906332C26.1019 1.51055 26.9123 2.38305 27.5056 3.52382C28.1037 4.65976 28.4028 6.02771 28.4028 7.62769ZM25.704 7.62769C25.704 6.50142 25.5279 5.55159 25.1758 4.77818C24.8285 3.99995 24.3461 3.41264 23.7287 3.01627C23.1113 2.61507 22.3998 2.41447 21.5942 2.41447C20.7887 2.41447 20.0772 2.61507 19.4598 3.01627C18.8424 3.41264 18.3576 3.99995 18.0055 4.77818C17.6581 5.55159 17.4845 6.50142 17.4845 7.62769C17.4845 8.75396 17.6581 9.70621 18.0055 10.4845C18.3576 11.2579 18.8424 11.8452 19.4598 12.2464C20.0772 12.6427 20.7887 12.8409 21.5942 12.8409C22.3998 12.8409 23.1113 12.6427 23.7287 12.2464C24.3461 11.8452 24.8285 11.2579 25.1758 10.4845C25.5279 9.70621 25.704 8.75396 25.704 7.62769Z" fill="black"/>
<path d="M44.1815 7.62769C44.1815 9.22767 43.8825 10.598 43.2843 11.7388C42.691 12.8748 41.8807 13.7448 40.8532 14.3491C39.8306 14.9533 38.6705 15.2554 37.373 15.2554C36.0754 15.2554 34.9129 14.9533 33.8855 14.3491C32.8629 13.74 32.0525 12.8675 31.4544 11.7316C30.8611 10.5908 30.5644 9.22284 30.5644 7.62769C30.5644 6.02771 30.8611 4.65976 31.4544 3.52382C32.0525 2.38305 32.8629 1.51055 33.8855 0.906332C34.9129 0.302111 36.0754 0 37.373 0C38.6705 0 39.8306 0.302111 40.8532 0.906332C41.8807 1.51055 42.691 2.38305 43.2843 3.52382C43.8825 4.65976 44.1815 6.02771 44.1815 7.62769ZM41.4827 7.62769C41.4827 6.50142 41.3067 5.55159 40.9545 4.77818C40.6072 3.99995 40.1249 3.41264 39.5074 3.01627C38.89 2.61507 38.1785 2.41447 37.373 2.41447C36.5674 2.41447 35.8559 2.61507 35.2385 3.01627C34.6211 3.41264 34.1363 3.99995 33.7842 4.77818C33.4369 5.55159 33.2632 6.50142 33.2632 7.62769C33.2632 8.75396 33.4369 9.70621 33.7842 10.4845C34.1363 11.2579 34.6211 11.8452 35.2385 12.2464C35.8559 12.6427 36.5674 12.8409 37.373 12.8409C38.1785 12.8409 38.89 12.6427 39.5074 12.2464C40.1249 11.8452 40.6072 11.2579 40.9545 10.4845C41.3067 9.70621 41.4827 8.75396 41.4827 7.62769Z" fill="black"/>
<path d="M46.7194 0.203019H50.0043L54.4034 10.963H54.5771L58.9763 0.203019H62.2612V15.0524H59.6853V4.85069H59.5479L55.4526 15.0089H53.528L49.4327 4.82894H49.2952V15.0524H46.7194V0.203019Z" fill="black"/>
<path d="M67.0872 15.0524H64.222L69.4387 0.203019H72.7526L77.9766 15.0524H75.1113L71.1535 3.2483H71.0378L67.0872 15.0524ZM67.1813 9.23009H74.9956V11.3908H67.1813V9.23009Z" fill="black"/>
<path d="M92.1056 0.203019V15.0524H89.7179L82.7357 4.9377H82.6127V15.0524H79.9283V0.203019H82.3305L89.3055 10.3249H89.4357V0.203019H92.1056Z" fill="black"/>
</g>
</g>
</g>
</svg>
