<svg width="22" height="23" viewBox="0 0 22 23" fill="none" xmlns="http://www.w3.org/2000/svg">
<path id="Vector" d="M21.8516 1.80005V18.05C21.8516 18.2987 21.7528 18.5371 21.577 18.713C21.4012 18.8888 21.1628 18.9875 20.9141 18.9875C20.6655 18.9875 20.427 18.8888 20.2512 18.713C20.0754 18.5371 19.9766 18.2987 19.9766 18.05V4.06255L1.57661 22.4625C1.3989 22.6281 1.16384 22.7183 0.920962 22.714C0.678086 22.7097 0.446354 22.6113 0.274587 22.4396C0.102821 22.2678 0.00443133 22.0361 0.000146059 21.7932C-0.00413921 21.5503 0.0860145 21.3153 0.251614 21.1375L18.6516 2.73755H4.66411C4.41547 2.73755 4.17702 2.63878 4.0012 2.46296C3.82539 2.28715 3.72661 2.04869 3.72661 1.80005C3.72661 1.55141 3.82539 1.31295 4.0012 1.13714C4.17702 0.961321 4.41547 0.862549 4.66411 0.862549H20.9141C21.1628 0.862549 21.4012 0.961321 21.577 1.13714C21.7528 1.31295 21.8516 1.55141 21.8516 1.80005Z" fill="#FAE86E"/>
</svg>
